<?xml version="1.0" standalone="no"?>
<!DOCTYPE svg PUBLIC "-//W3C//DTD SVG 1.1//EN" "http://www.w3.org/Graphics/SVG/1.1/DTD/svg11.dtd" >
<svg xmlns="http://www.w3.org/2000/svg">
<metadata>Generated by IcoMoon</metadata>
<defs>
<font id="bambi: 2014" horiz-adv-x="1024">
<font-face units-per-em="1024" ascent="921.6" descent="-102.4" />
<missing-glyph horiz-adv-x="1024" />
<glyph unicode="&#x20;" d="" horiz-adv-x="512" />
<glyph unicode="&#x2605;" d="M511.966 902.964l158.092-320.43 353.942-51.568-256.066-249.566 60.452-352.364-316.42 166.394-316.45-166.394 60.482 352.364-255.998 249.566 353.928 51.568z" />
<glyph unicode="&#xe600;" d="M1010.196 145.024l-408.66 707.824c-18.406 31.888-52.71 51.71-89.526 51.71-36.842 0-71.118-19.824-89.524-51.71l-408.658-707.794c-18.436-31.888-18.436-71.504 0-103.39 18.408-31.888 52.712-51.678 89.496-51.678h817.348c36.812 0 71.146 19.792 89.524 51.678 18.406 31.886 18.406 71.502 0 103.36zM560.748 265.89h-98v296h98v-296zM563.748 163.89c0-28.718-23.282-52-52-52s-52 23.282-52 52 23.282 52 52 52 52-23.28 52-52z" />
<glyph unicode="&#xe601;" d="M512 927.998c-282.324 0-512-229.676-512-512 0-282.318 229.678-511.994 512-511.994 282.328 0 512 229.676 512 511.994 0 282.322-229.672 512-512 512zM547.222-4.226v211.514h-70.44v-211.514c-206.088 17.136-370.476 182.954-385.392 389.656h212.534v70.472h-211.806c19.088 202.348 181.674 363.452 384.666 380.326v-212.556h70.44v212.556c202.972-16.882 365.574-177.984 384.66-380.326h-211.318v-70.472h211.996c-14.868-206.694-179.254-372.514-385.34-389.656z" />
<glyph unicode="&#xe602;" d="M510.050 928c-142.17 0-355.446-96.348-359.394-357.008-3.95-260.668 359.394-666.992 359.394-666.992s363.326 431.6 363.326 668.562c0 236.97-221.158 355.438-363.326 355.438zM510.050 425.6c-97.298 0-176.168 78.892-176.168 176.182 0 97.298 78.87 176.168 176.168 176.168 97.296 0 176.182-78.87 176.182-176.168 0-97.29-78.886-176.182-176.182-176.182z" />
<glyph unicode="&#xe603;" d="M1024 416c0-282.77-229.23-512-512-512s-512 229.23-512 512c0 282.77 229.23 512 512 512s512-229.23 512-512zM514.144 734.89c-46.944 0-85-38.056-85-85s38.056-85 85-85c46.944 0 85 38.056 85 85s-38.056 85-85 85zM599.144 487.89h-170v-372h170v372z" />
<glyph unicode="&#xe604;" d="M337.268 928l-162.534-162.536 349.464-349.438-349.464-349.48 162.534-162.546 511.998 512.026z" />
<glyph unicode="&#xe605;" d="M1024 373.514l-511.98 512-512.020-512 128.012-127.998 293.48 293.488v-592.516h181.028v592.516l293.48-293.488z" />
<glyph unicode="&#xe606;" d="M469.508-96l512.012 511.982-512.012 512.018-127.984-128.006 293.484-293.482h-592.532v-181.030h592.532l-293.484-293.482z" />
<glyph unicode="&#xe607;" d="M630.916 827.686c0-55.228-44.772-100-100-100s-100 44.772-100 100c0 55.228 44.772 100 100 100s100-44.772 100-100zM333.84 705.686c0-55.228-44.772-100-100-100s-100 44.772-100 100c0 55.228 44.772 100 100 100s100-44.772 100-100zM211.84 411.686c0-55.228-44.772-100-100-100s-100 44.772-100 100c0 55.228 44.772 100 100 100s100-44.772 100-100zM333.84 115.686c0-55.228-44.772-100-100-100s-100 44.772-100 100c0 55.228 44.772 100 100 100s100-44.772 100-100zM617.84-8.314c0-48.601-39.399-88-88-88s-88 39.399-88 88c0 48.601 39.399 88 88 88s88-39.399 88-88zM900.84 115.686c0-41.421-33.579-75-75-75s-75 33.579-75 75c0 41.421 33.579 75 75 75s75-33.579 75-75zM1010.84 411.686c0-34.794-28.206-63-63-63s-63 28.206-63 63c0 34.794 28.206 63 63 63s63-28.206 63-63zM875.84 705.686c0-27.614-22.386-50-50-50s-50 22.386-50 50c0 27.614 22.386 50 50 50s50-22.386 50-50z" />
<glyph unicode="&#xe608;" d="M512.014 927.986c-282.78 0-512.014-229.234-512.014-511.986s229.234-511.986 512.014-511.986c282.754 0 511.986 229.234 511.986 511.986s-229.232 511.986-511.986 511.986zM512.014-4.67c-232.332 0-420.68 188.33-420.68 420.67 0 232.322 188.348 420.68 420.68 420.68s420.652-188.358 420.652-420.68c0-232.34-188.32-420.67-420.652-420.67z" />
<glyph unicode="&#xe609;" d="M0 382.216c36.58 0 130.898 3.844 148.236 30.786 17.322 26.958 92.27 152.738 115.5 177.122 38.502 40.424 132.836 167.48 144.382 223.31 6.344 30.674-5.786 102.014 21.174 111.656 26.956 9.618 100.1 0 111.66-100.116 9.27-80.404-30.796-127.054-40.44-128.976 3.86-21.18-40.426-100.108-46.208-103.952-5.768-3.844-25.018-78.934 1.938-88.56 26.942-9.618 88.548-26.94 130.898-28.862 42.346-1.938 154.242-18.22 179.042-38.51 21.174-17.33 55.832-78.928-1.94-148.242 34.658-15.392 48.126-119.354-25.018-148.228 51.97-71.218-32.736-127.050-63.538-132.836 36.58-28.846-11.544-98.162-86.626-102.006-75.068-3.86-169.416 7.688-184.808 3.844-15.386-3.844-136.664-3.844-211.752 40.424-75.074 44.29-192.502 34.642-192.502 34.642v398.504h0.002z" horiz-adv-x="796" />
<glyph unicode="&#xe60a;" d="M56.518-98c-31.222 0-56.516 25.306-56.516 56.518v910.966c0 31.218 25.294 56.516 56.516 56.516h910.966c31.208 0 56.512-25.298 56.512-56.516v-910.966c0-31.21-25.304-56.518-56.512-56.518h-910.966zM706.542-98v396.546h133.106l19.93 154.542h-153.036v98.668c0 44.744 12.426 75.236 76.59 75.236l81.832 0.038v138.22c-14.154 1.88-62.732 6.088-119.244 6.088-117.99 0-198.768-72.020-198.768-204.282v-113.97h-133.446v-154.542h133.446v-396.544h159.59z" />
<glyph unicode="&#xe60b;" d="M0 241.27l162.534-162.532 349.446 349.46 349.472-349.46 162.548 162.532-512.020 511.992z" />
<glyph unicode="&#xe60c;" d="M686.73-96l162.536 162.534-349.466 349.44 349.466 349.478-162.536 162.548-511.996-512.026z" />
<glyph unicode="&#xe60d;" d="M1024 590.732l-162.54 162.536-349.448-349.466-349.462 349.466-162.55-162.536 512.012-512z" />
<glyph unicode="&#xe60e;" d="M512.010 927.992c-282.772 0-512.010-229.238-512.010-511.992s229.238-511.992 512.010-511.992c282.756 0 511.99 229.238 511.99 511.992s-229.234 511.992-511.99 511.992zM786.77 229.298l-88.308-88.31-186.378 186.396-186.396-186.396-88.308 88.31 186.376 186.414-186.376 186.378 88.308 88.328 186.396-186.396 186.378 186.396 88.308-88.328-186.378-186.378 186.378-186.414z" />
<glyph unicode="&#xe60f;" d="M1001.232 36.756l-246.96 246.914c108.932 160.544 92.37 381.472-49.776 523.568-160.956 160.988-422.85 160.988-583.792 0-160.942-160.91-160.942-422.788 0-583.728 142.158-142.19 363.070-158.74 523.616-49.756l246.946-246.93c30.376-30.406 79.576-30.406 109.966 0 30.356 30.342 30.356 79.528 0 109.932zM623.070 304.922c-116.062-116.046-304.876-116.046-420.954 0-116.030 116.062-116.030 304.874 0 420.92 116.078 116.092 304.89 116.092 420.954 0 116.048-116.046 116.048-304.858 0-420.92z" />
<glyph unicode="&#xe610;" d="M511.986 498.53h-247.944l247.944 429.472 247.944-429.472zM512 333.488h247.958l-247.958-429.49-247.946 429.49z" />
<glyph unicode="&#xe611;" d="M512.010 927.992c-282.772 0-512.010-229.238-512.010-511.992s229.238-511.992 512.010-511.992c282.756 0 511.99 229.238 511.99 511.992s-229.234 511.992-511.99 511.992zM796.8 199.522l-573.29-0.010 286.68 534.862 286.61-534.852z" />
<glyph unicode="&#xe612;" d="M4392.507 205.13c38.838 63.85 60.608 135.358 60.608 210.87 0 270.064-278.203 488.997-621.378 488.997-21.261 0-42.258-0.846-62.973-2.484v2.484h-3040.938c-343.179 0-621.378-218.932-621.378-488.997 0-270.067 278.2-488.997 621.378-488.997 4.24 0 8.464 0.048 12.687 0.116v-0.116l3028.256 2.486c20.712-1.641 41.718-2.486 62.976-2.486 156.251 0 299.031 45.401 408.214 120.337 93.713-26.55 250.806-27.606 392.458 82.61-85.504-36.075-178.801 22.432-239.91 75.179z" horiz-adv-x="4739" />
<glyph unicode="&#xe613;" d="M846.77-96l-329.846 295.384-339.694-295.384v1024h669.54z" />
<glyph unicode="&#xe614;" d="M954.98 380.752l-442.424 371.22-442.402-371.22-63.588 75.8 505.294 423.992 0.708-0.844 0.71 0.844 505.288-424.006-63.586-75.786zM915.842 315.858l-400.758 349.082-399.2-349.084v-366.524h288.588v211.628h221.25v-211.626h290.122v366.524z" />
<glyph unicode="&#xe615;" d="M925.278 765.14c-127.72 112.966-332.722 95.548-416.652-78.336-92.066 169.7-297.684 177.4-419.888 58.49-117.108-113.934-113.948-281.732-16.142-412.614 103.16-138.026 361.132-201.082 452.408-337.234 84.706 140.326 339.442 215.528 435.9 358.282 91.508 135.362 86.71 303.114-35.626 411.412z" />
<glyph unicode="&#xe616;" d="M921.594 928h-819.188c-9.432 0-17.076-7.64-17.076-17.058v-989.882c0-9.41 7.644-17.058 17.076-17.058h819.19c9.43 0 17.076 7.648 17.076 17.058v989.882c-0.002 9.418-7.648 17.058-17.078 17.058zM212.462 7.762h-85.808v85.792h85.808v-85.792zM212.462 190.886h-85.808v85.808h85.808v-85.808zM212.462 374.012h-85.808v85.812h85.808v-85.812zM212.462 557.156h-85.808v85.792h85.808v-85.792zM212.462 740.286h-85.808v85.808h85.808v-85.808zM767.99 24.804c0-9.398-7.644-17.042-17.056-17.042h-477.868c-9.428 0-17.076 7.644-17.076 17.042v357.052h512v-357.052zM767.99 450.152h-512v357.048c0 9.45 7.646 17.094 17.076 17.094h477.87c9.412 0 17.056-7.644 17.056-17.094v-357.048zM895.806 7.762h-85.826v85.792h85.826v-85.792zM895.806 190.886h-85.826v85.808h85.826v-85.808zM895.806 374.012h-85.826v85.812h85.826v-85.812zM895.806 557.156h-85.826v85.792h85.826v-85.792zM895.806 740.286h-85.826v85.808h85.826v-85.808z" />
<glyph unicode="&#xe617;" d="M136.866-6.214l-136.866 725.538 312.872-193.628 195.718 312.518 186.452-313.422 328.958 193.56-105.138-724.566z" />
<glyph unicode="&#xe618;" d="M953.378 502.276h-88.136c-8.804 35.402-22.736 68.644-41.058 99.080l62.346 62.346c27.542 27.586 27.542 72.276 0 99.862l-24.99 24.966c-27.562 27.586-72.296 27.586-99.882 0l-62.322-62.346c-30.438 18.298-63.678 32.23-99.056 41.056v88.138c-0.002 39.036-31.636 70.622-70.624 70.622h-35.31c-38.99 0-70.622-31.586-70.622-70.622v-88.138c-35.378-8.826-68.622-22.758-99.056-41.056l-62.37 62.346c-27.562 27.586-72.276 27.586-99.862 0l-24.964-24.968c-27.588-27.586-27.588-72.276 0-99.862l62.344-62.346c-18.322-30.436-32.254-63.678-41.058-99.080h-88.136c-39.036 0.048-70.622-31.584-70.622-70.62v-35.308c0-38.99 31.586-70.622 70.622-70.622h88.136c8.804-35.358 22.736-68.644 41.036-99.036l-62.32-62.344c-27.61-27.588-27.588-72.322 0-99.864l24.964-25.012c27.586-27.54 72.276-27.586 99.862 0l62.346 62.346c30.436-18.298 63.702-32.23 99.080-41.058v-88.138c0-38.988 31.63-70.62 70.622-70.62h35.31c38.988 0 70.622 31.63 70.622 70.62v88.138c35.378 8.828 68.62 22.76 99.056 41.058l62.346-62.346c27.586-27.54 72.296-27.54 99.882 0l24.966 25.012c27.562 27.542 27.586 72.276 0 99.864l-62.322 62.296c18.298 30.438 32.23 63.724 41.036 99.082h88.136c38.988 0.048 70.62 31.634 70.62 70.624v35.308c0 38.988-31.632 70.622-70.622 70.622zM511.976 208.252c-113.654 0-205.77 92.094-205.77 205.748s92.116 205.792 205.77 205.792c113.656 0 205.772-92.138 205.772-205.792s-92.116-205.748-205.772-205.748z" />
<glyph unicode="&#xe619;" d="M609.668 923.86l-0.166-124.894c-0.070-53.762-43.718-97.252-97.46-97.218-53.772 0.052-97.354 43.708-97.286 97.468l-0.078 124.784c-88.236-37.782-150.124-125.352-150.252-227.39-0.122-97.7 56.398-182.262 138.548-222.662l0.048-461.67c-0.056-59.758 48.36-108.236 108.090-108.278 59.756-0.126 108.238 48.25 108.282 108.024l0.478 461.346c82.596 40.078 139.598 124.702 139.706 222.636 0.144 102.11-61.646 189.902-149.91 227.854zM511.154-21.382c-31.458 0.036-56.97 25.582-56.91 57.084 0.030 31.492 25.578 57.024 57.056 56.994 31.51-0.078 57.040-25.674 56.992-57.166-0.024-31.494-25.612-56.912-57.138-56.912z" />
<glyph unicode="&#xe61a;" d="M508.584 927.944c25.506 0.924 179.868-7.262 228.080-149.346 0 0 12.922-54.828 15.752-93.902 2.862-37.782-17.938-191.218-17.938-191.218l-5.692-27.106c0 0-13.23-62.706-28.982-67.72-16.062-5.384-58.304-57.35-58.304-57.35l16.090-81.596c34.032-14.798 166.052-72.458 239.774-105.872 68.672-31.198 79.070-78.12 79.070-78.12l47.566-171.712h-1023.942l47.566 171.712c0 0 10.4 46.922 79.074 78.12 73.41 33.412 205.094 90.764 239.462 105.534l8.522 81.934c0 0-42.242 51.964-57.996 57.35-16.060 5.016-28.030 70.548-28.030 70.548l-11.014 22.398c0 0-16.092 155.316-13.876 193.098 2.524 41.598 15.752 93.902 15.752 93.902 48.216 142.084 203.528 150.27 229.066 149.346z" />
<glyph unicode="&#xe61b;" d="M149.97 778.044c-199.958-199.958-199.958-524.15-0.018-724.092s524.132-199.942 724.092 0.018c199.94 199.94 199.94 524.134 0 724.074s-524.134 199.94-724.074 0zM838.306 478.27v-124.882l-263.588 0.008v-263.606h-124.892l-0.028 263.606h-263.578l-0.012 124.902h263.61l-0.020 263.598 124.904-0.018v-263.58l263.604-0.028z" />
<glyph unicode="&#xe61c;" d="M554.492 928l-512.012-511.988 512.012-512.012 127.984 128-293.484 293.482h592.532v181.036h-592.532l293.484 293.484z" />
<glyph unicode="&#xe61d;" d="M0 458.486l511.994-512 512.006 512-127.998 127.998-293.482-293.488v592.518h-181.026v-592.518l-293.482 293.488z" />
<glyph unicode="&#xe61e;" d="M399.598 330.728c34.878-13.626 72.704-21.376 112.402-21.376 39.704 0 77.524 7.75 112.398 21.376 166.238-63.704 282.266-259.638 282.266-426.728h-789.328c0 167.090 116.042 363.016 282.262 426.728zM624.398 330.728c115.196 45.008 196.942 156.806 196.942 287.948 0 170.826-138.512 309.324-309.34 309.324-170.844 0-309.324-138.498-309.324-309.324 0-131.146 81.726-242.946 196.922-287.948 35.426 13.566 73.070 21.272 112.402 21.272s76.992-7.706 112.398-21.272zM624.398 330.728c-35.406 13.566-73.066 21.272-112.398 21.272s-76.976-7.706-112.402-21.272c34.878-13.626 72.704-21.376 112.402-21.376 39.704 0.002 77.524 7.752 112.398 21.376z" />
<glyph unicode="&#xe61f;" d="M1024 530.968l-353.942 51.564-158.094 320.432-158.036-320.432-353.928-51.564 255.998-249.568-60.482-352.364 316.45 166.394 316.422-166.394-60.454 352.364 256.066 249.568zM511.964 167.146l-227.838-119.804 43.558 253.708-184.324 179.696 254.824 37.128 113.78 230.706 113.836-230.706 254.836-37.128-184.364-179.696 43.53-253.708-227.838 119.804z" />
<glyph unicode="&#xe620;" d="M512 927.086c-282.77 0-512-229.23-512-512.008 0-282.77 229.23-512 512-512 282.786 0 512 229.23 512 512 0 282.778-229.214 512.008-512 512.008zM229.062 540.53c0 47.786 38.738 86.522 86.522 86.522 47.792 0 86.53-38.736 86.53-86.522 0-47.792-38.738-86.528-86.53-86.528-47.784 0-86.522 38.736-86.522 86.528zM512.008 116.14c-111.836 0-206.37 65.308-237.54 155.106h475.084c-31.176-89.796-125.708-155.106-237.544-155.106zM708.416 454.002c-47.784 0-86.53 38.744-86.53 86.528 0 47.786 38.746 86.522 86.53 86.522s86.528-38.736 86.528-86.522c0-47.784-38.744-86.528-86.528-86.528z" />
<glyph unicode="&#xe621;" d="M91.134 928v-1024.002h841.958v1024.002h-841.958zM796.512 128.142h-568.98v93.458h568.98v-93.458zM796.512 359.032h-568.98v93.458h568.98v-93.458zM796.512 587.172h-568.98v93.458h568.98v-93.458z" />
<glyph unicode="&#xe622;" d="M482.91 277.118c-5.77-27.184-54.122-254.64-67.21-295.82-9.828-31.246-25.528-79.848-37.868-77.188-12.336 2.606-6.872 53.364-3.21 85.914 4.816 42.934 53.168 270.39 58.934 297.578l49.354-10.484zM593.504 922.722c-85.918 13.844-182.718 2.336-206.39-57.376 0 0-22.372-74.258-19.864-93.442 1.804-13.894 9.68-58.86 70.622-94.796-4.016-15.95-13.894-55.070-22.172-88.024-77.488-9.504-105.93-53.414-112.5-61.692-8.976-11.234-41.878-67.91-37.714-110.468 5.618-58.582 79.446-147.48 184.422-169.8 105.028-22.32 208.648 28.89 237.64 80.098 21.062 37.214 14.042 102.368 10.43 116.262-2.656 10.23-10.73 61.894-77.692 102.118 5.872 33.454 12.742 73.226 15.55 89.43 70.316 8.024 95.796 45.942 103.122 57.878 10.078 16.5 19.86 93.442 19.86 93.442 2.608 64.172-81.104 114.078-165.314 136.37zM307.516 447.598c-31.55 48.626 8.476 75.808 8.476 75.808-21.468-25.352 14.292-135.446 202.578-159.32-24.624-14.742-154.73-3.208-211.054 83.512zM413.192 853.808c7.574 66.058 123.184 64.050 160.852 59.262 0 0-146.758-12.964-104.876-84.036 26.032-44.238 175.796-82.508 175.796-82.508-65.604-5.39-239.394 41.228-231.772 107.282z" />
<glyph unicode="&#xe623;" d="M384.040 44.442l-225.35-83.642c-24.030 16.234-43.528 34.378-56.346 47.622l43.168 236.152-17.48 14.708-42.472-232.224c-0.018 0.036-0.13 0.164-0.13 0.164l-10.658-59.11-11.698-63.984 0.18 0.066-0.034-0.194c0 0 93.064 34.528 117.158 43.48-0.082 0.032-0.144 0.078-0.21 0.114l221.37 82.18-17.498 14.668zM962.652 698.492l-273.508 229.508-561.112-668.718 273.506-229.508z" />
<glyph unicode="&#xe624;" d="M2115.201 922.684h-2051.362c-35.256 0-63.839-28.583-63.839-63.839v-893.747c0-35.252 28.583-63.839 63.839-63.839h2051.362c35.256 0 63.839 28.587 63.839 63.839v893.747c0 35.256-28.583 63.839-63.839 63.839zM661.628 190.31h-89.813l-178.72 289.089v-289.089h-83.157v443.316h87.094l181.435-296.056v296.056h83.161v-443.316zM1093.461 190.31h-337.181v443.32h328.707v-74.998h-239.196v-98.274h222.569v-74.7h-222.569v-120.664h247.67v-74.683zM1600.586 190.31h-94.958l-88.298 331.431-88-331.431h-97.074l-105.837 443.316h91.63l66.831-304.521 81.046 304.521h106.441l77.722-309.662 68.035 309.662h90.115l-107.654-443.316zM1853.087 190.31h-84.978v84.97h84.978v-84.97zM1856.41 529.597l-21.769-224.977h-48.088l-22.080 224.977v104.028h91.941v-104.028z" horiz-adv-x="2179" />
<glyph unicode="&#xe625;" d="M924 928h-824c-55 0-100-45-100-100v-824c0-55 45-100 100-100h824c55 0 100 45 100 100v824c0 55-45 100-100 100zM932 78.032c0-45.118-36.914-82.032-82.030-82.032h-675.938c-45.118 0-82.032 36.914-82.032 82.032v675.936c0 45.118 36.914 82.032 82.032 82.032h675.938c45.116 0 82.030-36.914 82.030-82.032v-675.936z" />
<glyph unicode="&#xe626;" d="M4204.626 393.45v388.688h154.87v-188.542h30.020v164.308h88.488v56.394h62.142v-56.394h93.254v-164.306h36.858v-62.182h-118.504c11.222-28.792 28.446-55.656 51.626-80.556 14.376-15.116 30.722-28.968 48.956-41.628 7.716-5.262 15.468-10.522 23.184-15.782l-43.7-60.602c-31.282 21.078-56.218 44.258-74.804 69.544-19.324 26.338-34.582 55.13-45.84 86.378-16.13-60.392-64.070-111.666-143.79-153.822l-43.172 60.078c35.808 15.43 63.722 31.774 83.75 48.958 28.442 25.286 48.084 54.43 58.988 87.43h-107.458v-99.53h-95.884v-38.438h-58.984zM4263.612 643.084h38.476v76.91h-38.476v-76.91zM4263.612 494.558h38.476v87.43h-38.476v-87.43zM4447.456 593.598h32.124v100.582h-32.124v-100.582zM4539.094 593.598h34.792v100.582h-34.792v-100.582zM4744.542 731.602v61.094h475.628v-61.094h-209.654v-33.214h96.41v-252.296h-250.72v252.296h95.32v33.214h-206.984zM4760.846 338.142v351.304h62.708v-273.376h314.966v273.376h65.304v-351.302h-65.304v19.99h-314.966v-19.99h-62.708zM4910.458 597.806h41.066v46.328h-41.066v-46.328zM4910.458 497.188h41.066v51.098h-41.066v-51.098zM5010.516 597.806h39.524v46.328h-39.524v-46.328zM5010.516 497.188h39.524v51.098h-39.524v-51.098zM2613.078 256.218c-9.96-2.386-46.748-15.048-57.552-18.098-1.086-33.95-6.524-185.63-6.524-185.63-3.050-70.63-33.668-117.378-114.926-148.49l-29.282 7.19c39.628 23.534 56.988 44.224 62.038 61.376 8.102 22.338 12.134 73.93 12.134 169.042 0 0-0.876 71.754-2.664 95.99-12.17 1.998-62.042 14.204-77.508 17.568l-0.666 22.586c31.774-0.948 101.214-1.928 128.534-1.928s60.602 1.366 88.518 1.928l-2.102-21.534zM3908.874 210.098c-5.89-1.438-22.938-5.292-37.876-8.486-0.982-24.514 1.894-204.636 2.174-247.74 0-6.172-6.944-9.326-12.518-3.718-39.036 38.126-163.256 178.83-204.638 229.89-0.070-31.876 1.614-160.098 1.962-183.876 15.572-4.314 51.592-12.942 58.252-14.274l1.508-25.602c-31.354 0.28-135.162 0.176-137.058 0l0.388 24.83c13.432 5.61 26.128 10.274 38.228 15.044 1.646 15.044 1.436 192.468 1.506 203.938-10.278 0.876-30.688 1.402-44.786 2.102v30.864c17.010 0.314 69.614 0.138 98.478 0 35.844-40.788 121.766-136.566 165.292-185.28 0.49 41.104-2.352 137.408-2.946 154.034-7.368 1.366-24.306 3.048-42.858 6.836l-2.494 24.272c7.402-0.706 54.222-1.406 62.956-1.406 8.766 0 47.766 2.318 55.834 2.98l-1.404-24.408zM3172.352 137.958c0-34.16-31.808-48.328-66.492-53.904v-24.128c73.086 7.402 119.73 36.474 119.73 79.296v2.032c0 49.802-33.074 93.008-111.070 94.518 0 0-28.056 1.124-44.294 1.124h-105.106l4.56-27.358c14.658-1.576 34.052-3.19 46.326-4.066 1.124-34.194 4.596-175.214 2.28-215.23-8.346-1.86-35.948-7.398-46.504-10.064l-2.594-23.882c10.416 0.594 161.146 0.558 172.268 0l-1.332 20.586c-10.772 2.838-49.488 9.854-59.342 12.308-1.296 9.398-4.034 208.986-3.438 217.65 15.676 0 44.296-0.738 56.71-4.034 29.88-7.926 38.296-40.124 38.296-60.252zM1139.964 777.616c-19.85-1.896-102.23-20.376-130.006-26.304-29.67-7.928-314.41-230.696-332.226-282.11-3.962-17.886 0-209.41 0-209.41l160.976-10.8-5.682-53.096c-23.18 1.576-172.512 1.294-266.152 1.294-47.45 0-192.328-5.292-241.216-3.856l6.066 50.57c30.546-2.524 77.124 2.28 105.634 9.926 28.548 7.574 48.994 18.902 48.994 47.522v166.166c-9.924 29.704-246.722 327.84-308.062 375.328-17.782 5.962-134.496 18.692-162.168 24.584l5.752 49.906h540.406l-7.788-45.908c-23.742-5.962-138.108-8.17-167.778-16.028 77.12-114.788 199.202-262.54 238.796-319.986 21.746 31.704 228.838 176.652 234.766 222.104-29.67 5.892-128.010 20.096-143.792 20.096l-9.364 50.852h466.582l-33.738-50.85zM2291.024 344.456c-85.152 5.048-234.588 2.946-322.652 0l5.224 45.064c13.258 1.298 82.838 12.348 100.512 14.872v154.136c-42.366 0-279.162-5.122-316.548-14.66v-138.494c0 0 102.020-11.748 125.834-14.274l-5.472-46.786c-92.868 5.19-277.726 5.366-365.544 0.314l5.752 50.188c27.53 0.736 101.25 9.19 118.432 11.888 2.702 34.334 3.964 88.66 3.964 145.51v70.176c0 23.778-1.262 92.588-2.63 116.434-20.236 0.036-104.862 7.998-128.71 9.292l5.822 44.436c76.418-4.28 311.954-4.138 376.87-0.14l-6.628-41.418c-18.482-0.982-102.092-13.362-127.694-13.432v-122.922h316.548v179.598c-23.32 2.42-80.344 15.114-105.562 16.378l4.91 41.278c52.958-3.894 262.188-3.262 318.23 0l-3.894-43.348c-17.254-1.368-78.628-11.82-98.828-13.152v-392.408c0 0 89.432-10.874 107.984-13.468l-5.92-45.062zM3887.62 298.056l-58.43-2.35 11.224 98.724 58.216-2.842 54.394 2.070-11.434-96.69-53.97 1.088zM3951.66 475.060h-85.082v446.94h193.132l-17.358-67.16-90.692-379.78zM2661.090 392.010c-7.048-0.244-14.062-0.63-20.972-0.98-6.908 0.35-13.922 0.736-21.078 0.98-71.542 1.966-209.688 42.788-209.688 166.062 0 1.894 0 5.926 0 6.208 0 0.174 0 4.314 0 6.208 0 123.308 138.146 164.13 209.688 166.094 7.156 0.21 14.17 0.596 21.078 0.948 6.91-0.352 13.924-0.738 20.972-0.948 71.614-1.964 209.792-42.786 209.792-166.094 0-1.894 0-5.962 0-6.208 0-0.28 0-4.314 0-6.208-0.002-123.274-138.178-164.096-209.792-166.062zM2992.578 567.12c0 141.72-135.828 227.68-342.466 231.994 0 0-7.364 0.036-9.994 0.036-2.628 0-10.030-0.036-10.030-0.036-219.298-4.594-340.572-91.080-340.572-232.696 0-0.702-0.106-1.472-0.106-2.14 0-0.736 0.034-1.366 0.106-2.138 1.332-133.338 133.864-228.346 340.572-232.66 0 0 7.4-0.108 10.030-0.072 2.63-0.036 9.994 0.072 9.994 0.072 206.638 4.312 339.978 93.638 342.434 232.098-0.002 0.736 0.032 4.84 0.032 5.542zM3443.41 437.568c-10.622-0.77-21.074-1.122-31.526-1.192-10.38 0.070-20.9 0.42-31.458 1.192-78.174 5.332-219.928 53.308-222.876 185.84 2.948 132.532 144.702 178.44 222.876 183.77 10.556 0.702 21.076 1.052 31.458 1.158 10.452-0.106 20.904-0.456 31.526-1.158 78.178-5.33 219.968-51.238 222.914-183.77-2.946-132.532-144.736-180.51-222.914-185.84zM3799.414 623.268c0 0.876-0.070 2.63-0.070 2.63-5.256 148.244-148.104 244.022-377.99 248.896 0 0-6.244 0.14-9.468 0.14-3.086 0-9.364-0.14-9.364-0.14-229.992-4.876-373.4-94.166-377.992-248.896v-4.91c4.592-154.802 148-246.194 377.992-251.036 0 0 6.278-0.174 9.364-0.138 3.224-0.036 9.468 0.138 9.468 0.138 229.886 4.842 373.396 96.234 377.99 251.036 0 0 0.070 1.472 0.070 2.28zM1137.546 467.94c7.504 20.026 74.77 162.938 74.77 162.938l63.302-162.938h-138.072zM1483.904 280.73c-23.988 39.316-114.366 262.084-154.838 362.878l74.21 11.572 8.91 38.054h-112.894l0.106-0.35c-42.892-0.63-217.684 0.946-236.868 2.068l-3.192-39.666 89.71-21.428c0 0-131.304-259.558-157.502-297.016-23.322-5.048-80.346-18.762-101.706-21.252l-6.208-47.942c17.708 2.49 246.896 1.192 268.082 0l4.91 43.278-79.856 18.902c0 0 36.262 75.438 41.276 84.17 26.164 5.050 175.11 7.294 175.11 7.294l53.096-144.072c0 0-63.164-9.746-88.132-10.942l-5.578-47.308c18.694 0 321.284 1.262 330.052 0l5.016 42.47c-22.374 1.232-82.486 15.504-103.704 19.29zM3514.606-11.444c-29.916 62.428-80.066 184.998-93.498 218.068l35.738 4.844 2.454 23.95-147.858-5.154-0.524-20.060 38.33-6.662c-25.25-55.306-90.518-196.642-101.88-213.264-9.854-3.508-22.026-7.298-33.912-11.576l-2.422-22.408c33.952 1.82 107.142 0.594 118.644 0l0.526 20.060-36.716 10.452c0 0 22.902 55.34 31.142 72.036 28.548 0.382 103.846-0.354 103.846-0.354l28.020-73.366c0 0-26.092-5.542-45.45-9.222l-3.372-19.606c10.172 0 143.968 0.594 148.702 0l2.598 23.144c-12.312 2.632-44.368 9.118-44.368 9.118zM3334.45 83.458c5.96 14.552 44.61 105.108 44.61 105.108l40.86-105.46-85.47 0.352zM2895.328-11.444c-18.728 39-69.72 160.974-92.902 218.138l38.68 6.944 1.090 21.746-150.032-5.122-0.248-19.884 38.368-6.626c-25.32-55.274-90.87-196.89-102.196-213.512-12.416-4.56-23.322-7.888-33.984-11.61l-2.35-22.374c33.494 1.086 107.176 0.594 118.646 0l0.526 20.096-36.72 10.452c0 0 22.9 55.34 31.178 71.998 28.512 0.42 103.81-0.316 103.81-0.316l27.986-73.366c0 0-26.092-5.542-45.45-9.222l-3.334-19.64c10.134 0 143.966 0.628 148.702 0l2.558 23.148c-12.274 2.664-44.328 9.15-44.328 9.15zM2715.206 83.422c5.928 14.59 44.538 105.144 44.538 105.144l40.896-105.46-85.434 0.316z" horiz-adv-x="5235" />
<glyph unicode="&#xe627;" d="M834.966 580.438c3.688-3.11 4.164-8.61 1.056-12.312l-440.052-524.454c-1.468-1.774-3.618-2.882-5.924-3.086-0.256-0.020-0.496-0.036-0.768-0.036-2.050 0-4.032 0.718-5.602 2.046l-236.622 198.548c-1.776 1.484-2.904 3.618-3.108 5.922-0.204 2.328 0.53 4.614 2.014 6.39l440.088 524.454c1.468 1.774 3.622 2.882 5.926 3.086 2.304 0.156 4.592-0.508 6.368-2.012l236.624-198.546zM131.106 220.054c-2.356 1.984-5.566 2.578-8.436 1.488-2.884-1.042-4.986-3.554-5.516-6.574l-52.64-300.926c-0.512-3.008 0.598-6.062 2.938-8.024 1.572-1.316 3.518-2.020 5.498-2.020 0.99 0 1.98 0.172 2.936 0.516l287.2 104.118c2.87 1.042 4.986 3.554 5.498 6.578 0.546 3.004-0.582 6.078-2.92 8.040l-234.558 196.804zM947.692 754.226l-198.204 166.31c-13.592 11.422-35.634 9.492-47.042-4.102l-74.906-89.282c-11.852-14.090-10.008-35.192 4.098-47.042l198.222-166.31c5.992-5.040 13.608-7.82 21.46-7.82 9.886 0 19.226 4.336 25.578 11.922l74.926 89.296c11.818 14.106 9.972 35.212-4.132 47.028z" />
<glyph unicode="&#xe628;" d="M512.008 927.982c-282.772 0-512.008-229.236-512.008-511.99 0-282.756 229.236-511.992 512.008-511.992 282.756 0 511.992 229.236 511.992 511.992 0 282.754-229.236 511.99-511.992 511.99zM842.052 351.454h-645.39v129.078h645.39v-129.078z" />
<glyph unicode="&#xe629;" d="M1024 702.234l-172.156 139.726-431.884-532.174-273.944 222.28-146.016-180.020 446.054-362.004 146.094 180.020z" />
<glyph unicode="&#xe62a;" d="M443.048 850.234c-116.444 0-225.906-45.336-308.224-127.656-82.318-82.316-127.652-191.774-127.652-308.204 0-116.448 45.334-225.91 127.65-308.23s191.782-127.656 308.224-127.656c240.342 0 435.88 195.54 435.88 435.886 0.002 240.334-195.534 435.86-435.878 435.86zM378 700.126c7.686 55.904 59.238 94.992 115.138 87.308l2.284-0.32c55.86-8.010 94.65-59.788 86.636-115.646-7.302-50.94-51.012-87.688-101.014-87.688-4.83 0-9.708 0.342-14.628 1.048l-1.108 0.156c-55.904 7.686-94.994 59.238-87.308 115.142zM113.366 584.568l1.014 2.068c25.028 50.578 86.314 71.29 136.892 46.268 50.578-25.024 71.294-86.314 46.268-136.892l-0.488-0.992c-17.698-36.306-54.076-57.426-91.92-57.426-15.028 0-30.282 3.326-44.698 10.356-50.722 24.728-71.796 85.894-47.068 136.618zM333.016 163.076c-20.052-20.81-46.804-31.28-73.59-31.28-25.516 0-51.060 9.492-70.884 28.598l-1.708 1.652c-40.376 39.422-41.148 104.114-1.726 144.488 39.42 40.378 104.114 41.15 144.49 1.728l0.736-0.712c40.636-39.152 41.838-103.836 2.682-144.474zM445.496 355.398c-33.52 0-60.602 27.080-60.602 60.616 0 33.43 27.082 60.588 60.602 60.588 33.448 0 60.578-27.162 60.578-60.588-0.002-33.534-27.132-60.616-60.578-60.616zM614.858 100.32l-1.804-0.954c-15.164-7.966-31.424-11.746-47.44-11.746-36.75 0-72.258 19.878-90.54 54.672-26.248 49.958-7.030 111.73 42.926 137.98l1.208 0.63c49.872 26.414 111.706 7.4 138.12-42.466 26.408-49.864 7.4-111.704-42.47-138.116zM720.606 367.208c-5.694-0.954-11.366-1.414-16.954-1.414-49.034 0-92.312 35.396-100.658 85.364l-0.304 1.778c-10.006 55.536 26.906 108.668 82.442 118.672 55.542 9.998 108.67-26.908 118.676-82.444l0.754-4.346c9.292-55.666-28.296-108.32-83.956-117.61zM1018.864 279.746c-9.81-34.644-46.072-95.114-104.97-152.106-51.87-50.192-140.688-115.948-269.268-144.172-0.582-0.128-1.166-0.192-1.742-0.192-3.428 0-6.574 2.188-7.694 5.56-1.306 3.944 0.578 8.236 4.366 9.944 0.734 0.332 50.636 23.26 107.816 75.26 52.752 47.974 122.718 131.28 156.466 255.702 0.626 2.318 2.25 4.236 4.43 5.24 2.174 1.004 4.686 0.998 6.86-0.030 49.4-23.324 98.75-45.376 99.24-45.594 3.68-1.64 5.594-5.734 4.496-9.612z" />
<glyph unicode="&#xe62b;" d="M622.222 678.374c31.472 19.178 67.188 21.876 94.924 13.826 58.962 17.1 154.036-13.318 167.346-150.226 13.298-136.91-77.954-239.598 0-254.794-20.728-20.73-69.010-22.9-99.302 1.326-2.518-3.224-5.174-6.452-8.050-9.576-0.074-8.72 0.1-16.908 0.892-20.306 2.084-8.76 111.448-48.94 143.776-63.206 32.328-14.254 58.23-34.224 67.658-86.984 9.44-52.772 17.838-123.604 17.838-123.604h-225.206c-2.64 21.546-11.56 92.23-21.384 147.322-11.736 65.76-44.040 90.63-84.306 108.408-6.996 3.088-16.72 7.294-27.972 12.17 4.478 2.518 7.38 4.59 7.692 5.892 0.756 3.2 0.956 10.642 0.918 18.782-3.188 3.362-6.14 6.822-8.906 10.32-12.406-9.576-27.652-14.626-42.774-16.102-14.402 6.4-29.116 13.074-42.71 19.488 41.42 18.732 4.39 80.906-9.464 166.762 2.084 6.786 4.032 13.602 5.768 20.418 15.458 2.99 28.482 42.376 30.070 51.94 0.274 1.65 0.596 3.758 0.892 6.054 14.672 24.986 35.948 83.742 32.3 142.090zM732.604 132.152c-11.734 65.76-44.038 90.63-84.304 108.408-40.292 17.776-169.85 72.124-172.878 84.95-1.538 6.576-1.488 21.97-1.092 35.442 4.318 5.718 8.312 11.326 12.132 16.45 21.66 28.868 35.28 65.052 44.386 100.892 15.458 2.99 28.482 42.376 30.070 51.94 0.272 1.65 0.594 3.758 0.892 6.054 30.492 51.916 89.838 249.728-106.288 286.496-27.042 30.43-158.934 50.724-226.554-27.068-60.538-69.618-64.668-170.682-27.416-233.886-0.57-11.86 1.24-24.884 2.344-31.596 1.75-10.396 16.982-56.034 34.188-51.816 9.106-34.722 23.048-70.684 45.8-101.016 4.366-5.83 8.944-12.292 13.968-18.83 0.348-12.866 0.298-26.882-1.166-33.060-3.040-12.826-132.56-67.174-172.852-84.95-40.292-17.778-72.558-42.648-84.318-108.408-11.736-65.76-22.218-154.022-22.218-154.022h737.508c0.004-0.002-10.466 88.26-22.202 154.020z" />
<glyph unicode="&#xe62c;" d="M647.92 870.55h376.076v-215.55h-376.076v215.55zM676.154 567.71v-152.024h-391.154v-199.554h289.976v-99.436h419.906v451.014zM0 352.172h197v-390.722h-197v390.722zM284.898 148.21h251.272v-152.558h-251.272v152.558z" />
<glyph unicode="&#xe62d;" d="M1716.695-95.855v-0.149l-1246.299 0.272c-1.775-0.026-3.498-0.272-5.299-0.272-256.874 0-465.098 229.202-465.098 512.002 0 282.754 208.224 512.002 465.098 512.002 1.8 0 3.52-0.298 5.299-0.298v0.298l1246.299-0.149c255.575-1.677 462.327-230.104 462.327-511.853s-206.752-510.198-462.327-511.853zM1191.823 344.601v-65.103c-15.623-12.146-34.349-22.475-56.174-30.996-21.824-8.503-43.576-12.751-65.277-12.751-43.878 0-79.322 15.198-106.398 45.657-27.072 30.442-40.601 76.155-40.601 137.049 0 56.45 13.351 99.048 40.078 127.749 26.723 28.702 62.694 43.048 107.977 43.048 29.876 0 54.773-7.299 74.725-21.901 19.952-14.576 33.549-34.452 40.776-59.651l102.899 19.245c-10.274 47.1-33.294 84.050-69.12 110.751-35.826 26.723-85.573 40.099-149.276 40.099-49.007 0-89.949-8.55-122.851-25.548-43.176-22.203-75.951-54.050-98.35-95.549-22.399-41.555-33.6-89.051-33.6-142.449 0-49.249 10.018-94.8 30.098-136.704 20.075-41.874 50.049-74.070 89.949-96.596 39.899-22.501 86.676-33.754 140.351-33.754 42.227 0 83.956 8.001 125.128 23.952 41.176 16.002 72.618 34.498 94.328 55.501v204.394h-223.299v-86.45l118.642 0.004z" horiz-adv-x="2179" />
<glyph unicode="&#xe62e;" d="M1342.425 473.181c19.096 0 34.316 5.669 45.751 16.981 11.44 11.304 17.151 26.983 17.151 46.998 0 18.82-5.669 33.907-16.943 45.211-11.338 11.312-26.302 16.981-44.887 16.981-19.292 0-34.669-5.72-46.1-17.156-11.44-11.436-17.156-26.574-17.156-45.394 0-20.016 5.669-35.635 16.998-46.815 11.287-11.214 26.4-16.807 45.185-16.807zM1343.864 392.765c-24.514 0-42.84-8.478-54.846-25.378-12.044-16.926-18.071-35.286-18.071-55.046 0-27.647 7.099-49.216 21.288-64.695 14.142-15.5 31.864-23.225 53.050-23.225 20.731 0 37.882 7.456 51.471 22.335 13.581 14.887 20.373 36.384 20.373 64.512 0 24.54-6.89 44.266-20.731 59.153-13.793 14.887-31.298 22.344-52.535 22.344zM568.981 483.901c7.154 10.474 10.721 23.591 10.721 39.316 0 17.615-4.699 31.86-14.087 42.717-9.461 10.848-22.727 17.688-39.882 20.548-8.58 1.17-34.316 1.787-77.207 1.787h-82.565v-132.964h78.284c50.756 0 82.459 2.145 95.078 6.443 12.653 4.281 22.514 11.661 29.66 22.152zM2124.556 928h-2070.084c-30.085 0-54.472-24.391-54.472-54.48v-915.052c0-30.081 24.382-54.472 54.472-54.472h2070.084c30.081 0 54.485 24.382 54.485 54.472v915.052c0 30.089-24.395 54.48-54.485 54.48zM604.726 152.934l-76.5 114.021c-27.161 40.734-45.743 66.418-55.757 77.024-10.010 10.589-20.573 17.871-31.813 21.803-11.18 3.932-28.957 5.894-53.255 5.894h-21.454v-218.738h-105.777v523.978h222.671c56.004 0 96.708-4.703 122.086-14.121s45.7-26.166 60.915-50.216c15.27-24.080 22.876-51.595 22.876-82.565 0-39.316-11.542-71.785-34.669-97.397-23.076-25.608-57.647-41.764-103.649-48.433 22.876-13.351 41.764-28.013 56.668-43.96 14.853-15.99 34.98-44.321 60.205-85.068l63.975-102.223h-126.521zM1023.264 152.934h-100.44v378.506c-36.656-34.316-79.905-59.69-129.747-76.134v91.145c26.251 8.58 54.689 24.838 85.425 48.786s51.829 51.871 63.265 83.812h81.488l0.009-526.115zM1470.222 189.037c-30.89-30.272-71.887-45.394-123.158-45.394-47.628 0-87.306 12.508-119.017 37.529-37.371 29.54-56.123 70.057-56.123 121.52 0 28.336 7.048 54.378 21.097 78.105 14.087 23.714 36.256 41.993 66.473 54.868-25.944 10.946-44.824 26.034-56.625 45.211-11.797 19.177-17.722 40.206-17.722 63.082 0 39.061 13.632 71.355 40.955 96.865 27.264 25.476 66.061 38.235 116.306 38.235 49.841 0 88.494-12.759 116.017-38.235 27.523-25.51 41.253-57.804 41.253-96.865 0-24.306-6.29-45.926-18.943-64.869-12.61-18.943-30.387-33.422-53.263-43.423 29.102-11.695 51.161-28.719 66.325-51.118 15.117-22.42 22.676-48.254 22.676-77.556 0.017-48.386-15.402-87.706-46.249-117.953zM1946.104 364.527h-137.603v-136.173h-91.494v136.173h-137.254v94.005h137.254v136.173h91.494v-136.173h137.603v-94.005z" horiz-adv-x="2179" />
<glyph unicode="&#xe62f;" d="M456.028 553.145c-12.368 2.328-37.227 3.507-74.551 3.507h-50.050v-145.6h56.698c40.831 0 68.129 2.668 81.901 8.048 13.772 5.354 24.557 13.747 32.375 25.204 7.822 11.423 11.725 24.723 11.725 39.899 0 18.645-5.473 34.048-16.449 46.194-10.972 12.129-24.846 19.705-41.649 22.748zM1716.705 927.851v0.149l-1246.3-0.289c-1.775 0.017-3.498 0.289-5.299 0.289-256.88 0-465.106-229.233-465.106-512.002 0-282.777 208.226-512.002 465.102-512.002 1.8 0 3.52 0.268 5.299 0.298v-0.298l1246.305 0.149c255.582 1.647 462.335 230.106 462.335 511.853 0 281.756-206.753 510.198-462.335 511.853zM603.73 406.15c-11.427-21.471-25.953-38.329-43.568-50.573-17.632-12.253-35.533-20.373-53.727-24.331-24.731-4.894-60.553-7.35-107.45-7.35h-67.559v-193.552h-103.602v513.104h166.25c63.001 0 104.075-2.575 123.201-7.708 29.4-7.69 54.025-24.438 73.853-50.216s29.749-59.102 29.749-99.925c0-31.498-5.72-58.004-17.147-79.45zM1167.932 201.047c-21.701-21.007-53.148-39.499-94.329-55.476-41.176-15.977-82.901-23.974-125.125-23.974-53.672 0-100.453 11.248-140.352 33.775s-69.874 54.727-89.949 96.597c-20.080 41.878-30.098 87.43-30.098 136.679 0 53.425 11.197 100.896 33.601 142.451 22.403 41.529 55.178 73.372 98.346 95.55 32.903 17.024 73.858 25.544 122.852 25.544 63.703 0 113.451-13.342 149.277-40.065 35.826-26.732 58.847-63.656 69.125-110.778l-102.9-19.25c-7.227 25.204-20.829 45.096-40.78 59.673s-44.853 21.871-74.726 21.871c-45.275 0-81.25-14.338-107.973-43.040-26.727-28.702-40.078-71.295-40.078-127.759 0-60.907 13.525-106.573 40.602-137.016 27.076-30.455 62.528-45.675 106.403-45.675 21.697 0 43.449 4.239 65.278 12.776 21.824 8.525 40.546 18.824 56.174 30.962v65.112h-118.651v86.451h223.305v-204.408zM1493.434 130.352h-98.342v370.641c-35.929-33.592-78.284-58.443-127.057-74.547v89.251c25.676 8.405 53.548 24.331 83.65 47.781 30.102 23.442 50.752 50.799 61.954 82.067h79.799l-0.004-515.194zM1972.585 221.697v-91.345h-344.752c3.724 34.52 14.921 67.248 33.605 98.176 18.675 30.915 55.527 71.925 110.595 123.022 44.326 41.295 71.534 69.299 81.552 83.991 13.525 20.301 20.305 40.355 20.305 60.2 0 21.927-5.907 38.801-17.675 50.573-11.776 11.78-28.051 17.679-48.824 17.679-20.526 0-36.878-6.201-49.007-18.543-12.125-12.376-19.126-32.907-21.003-61.613l-98.001 9.81c5.826 54.123 24.152 92.975 54.953 116.549 30.8 23.548 69.299 35.346 115.502 35.346 50.629 0 90.426-13.64 119.354-40.946 28.928-27.298 43.398-61.247 43.398-101.845 0-23.101-4.15-45.113-12.427-65.984-8.265-20.863-21.395-42.768-39.376-65.627-11.9-15.168-33.375-36.997-64.397-65.444-31.030-28.476-50.705-47.373-58.975-56.698-8.274-9.359-14.998-18.454-20.126-27.306l195.301 0.004z" horiz-adv-x="2179" />
<glyph unicode="&#xe630;" d="M1023.984 415.99c0 282.772-229.238 512.010-511.992 512.010s-511.992-229.238-511.992-512.010c0-282.756 229.238-511.99 511.992-511.99s511.992 229.234 511.992 511.99zM295.516 131.2l-0.012 573.29 534.864-286.68-534.852-286.61z" />
<glyph unicode="&#xe631;" d="M883.846 59.42c0-11.002-9-20.002-20.002-20.002h-690.608c-11 0-20 9-20 20.002v848.58c0 11 9 20 20 20h690.61c11.002 0 20.002-9 20.002-20v-848.58zM804.028 837.106c0 11-9 20-20.002 20h-690.61c-11 0-20-9-20-20v-848.58c0-11.002 9-20.002 20-20.002h690.61c11.002 0 20.002 9 20.002 20.002v848.58zM730.614 772.58c0 11-9 20-20.002 20h-690.612c-11 0-20-9-20-20v-848.58c0-11 9-20 20-20h690.612c11.002 0 20.002 9 20.002 20.002v848.578z" horiz-adv-x="884" />
<glyph unicode="&#xe632;" d="M255.988 546.732c-0.038 10.738 7.814 15.68 17.47 11.034l98.342-47.414c7.416-3.566 13.75-11.792 16.364-20.25l-0.258 55.19c0 3.398 0.94 6.566 2.472 9.372-46.628 15.076-80.46 58.652-80.694 110.328-0.308 64.394 51.648 116.842 116.018 117.126 64.394 0.284 116.83-51.65 117.126-116.044 0.194-42.92-22.914-80.46-57.39-100.854l115.698 0.542c-34.67 20.070-58.114 57.392-58.306 100.312-0.294 64.394 51.65 116.816 116.044 117.126 64.394 0.284 116.792-51.662 117.1-116.056 0.258-52.564-34.348-97.132-82.056-111.886 1.274-2.6 2.084-5.472 2.084-8.548l0.774-164.784c0.050-10.686-8.678-20.726-19.4-20.778l-269.126-0.128c-10.71-0.064-19.53 8.792-19.58 19.492l-0.244 55.202c-2.548-8.496-8.806-16.76-16.17-20.392l-97.918-48.302c-9.604-4.762-17.508 0.128-17.56 10.84l-0.79 168.872zM878.292 561.51c0-165.622-109.852-305.506-260.642-350.914l-87.026-300.1c-9.54-8.664-25.028-8.664-34.566 0l-86.756 299.16c-152.502 44.366-263.99 185.036-263.99 351.854 0 202.428 164.090 366.49 366.516 366.49 202.402 0 366.464-164.062 366.464-366.49zM804.076 561.51c0 161.412-130.824 292.26-292.248 292.26-161.436 0-292.296-130.848-292.296-292.26 0-161.436 130.862-292.272 292.296-292.272 161.424 0 292.248 130.836 292.248 292.272z" />
<glyph unicode="&#xe633;" d="M873.898-0.85c0-37.652-33.188-35.402-86.29-42.064-6.644-19.9-24.326-53.086-61.942-53.086-37.618 0-53.122 70.786-57.55 90.682-4.286 19.304-136.996 117.224-227.788 165.646-90.792-48.422-223.502-146.342-227.788-165.646-4.43-19.896-19.934-90.682-57.55-90.682-37.618 0-55.3 33.186-61.944 53.084-53.102 6.662-86.29 4.412-86.29 42.064 0 37.616 19.88 59.692 117.244 68.57 42.082 4.43 59.748 22.13 92.934 44.26 13 8.662 76.332 44.208 150.754 84.974-77.034 37.762-160.532 75.81-217.344 96.446-46.458-39.812-110.616-48.654-137.176-24.308-26.524 24.364 37.598 88.486 37.598 88.486s-19.898 55.316 0 86.306c19.934 30.99 53.122 11.056 84.11-11.056 30.99-22.148 59.748-75.25 97.364-88.522 18.224-6.41 112.22-55.93 208.088-107.806 95.87 51.876 189.866 101.396 208.088 107.806 37.616 13.272 66.374 66.374 97.364 88.522 30.99 22.114 64.178 42.046 84.112 11.056 19.896-30.99 0-86.306 0-86.306s64.122-64.124 37.598-88.486c-26.56-24.346-90.718-15.504-137.178 24.308-56.81-20.634-140.308-58.684-217.344-96.446 74.424-40.768 137.754-76.312 150.756-84.974 33.186-22.128 50.852-39.83 92.934-44.26 97.362-8.878 117.24-30.954 117.24-68.568zM598.482 598.204c-11.94-33.438-11.94-71.704-11.94-71.704-43.036-14.316-96.84-40.606-96.84-40.606s3.602-33.888-17.898-41.11c-21.502-7.148-109.916-9.076-117.064 7.634-7.148 16.746-5.276 35.852-5.276 35.852-19.124 9.562-87.928 38.23-87.928 38.23s-2.412 35.87-19.142 74.116c-16.728 38.21-72.802 145.712 0 243.742 62.144 83.642 168.89 83.642 208.27 83.642 39.346 0 131.090-24.832 166.924-110.868 35.87-86.056 0.774-189.11-19.106-218.928zM384.706 785.944c0 0-33.854 34.808-81.284 4.826-47.43-30.018-52.256-60.99-48.386-88.108 3.89-27.1 30.018-60.954 55.21-54.164 25.102 6.752 112.236 91.924 74.46 137.446zM422.464 653.358c0 0-51.806-54.884-42.136-115.946 29.028-13.614 80.852-6.68 90.036 2.448 9.094 9.166-16.332 85.138-47.9 113.498zM539.258 790.77c-47.43 29.982-81.3-4.826-81.3-4.826-37.762-45.522 49.32-130.694 74.512-137.446 25.174-6.79 51.302 27.064 55.192 54.164 3.816 27.118-1.010 58.090-48.404 88.108zM313.614 384.552c0 0 26.272-27.498 44.242-37.024 12.444-19.43 32.702-38.246 67.852-38.246 35.13 0 46.602 23.462 56.144 35.42 0 0 34.878 30.288 38.822 36.284 0 0 11.598 41.812 16.386 60.918 0 0-13.144 5.978-21.536 7.022-26.274-69.83-74.296-62.592-94.124-64.968-89.296-0.594-99.308 64.968-99.308 64.968l-21.878-8.246c0-0.002 9.816-38.194 13.4-56.128z" horiz-adv-x="874" />
<glyph unicode="&#xe634;" d="M512.018 928c-282.776 0-512.018-229.24-512.018-512 0-282.758 229.242-512 512.018-512 282.76 0 511.998 229.242 511.998 512 0 282.76-229.238 512-511.998 512zM786.782 229.295l-88.309-88.309-186.381 186.399-186.399-186.399-88.309 88.309 186.379 186.419-186.379 186.381 88.309 88.329 186.399-186.399 186.381 186.399 88.309-88.329-186.381-186.381 186.381-186.419z" />
<glyph unicode="&#xe635;" d="M1405.387 98.879l-46.737-138.627 61.922-27.453 66.942-28.799 66.757 128.826-71.382 28.149zM1695.953 873.837l-27.26-99.485c-16.074-49.747-163.921-516.773-197.199-572.715l115.312-52.454c20.213 27.414 251.974 407.904 315.025 489.443l76.070 102.788c-27.592 10.799-37.308 18.441-119.706 56.693-135.177 62.85-131.425 57.675-162.243 75.73zM2858.935 330.593h203.364v106.641h-63.198v281.933h-159.992v96.677h-106.641v-96.677h-151.792v-281.941h-51.502v323.495h-265.689v-666.917h101.21v65.999h164.471v170.783h184.389c-35.266-105.805-112.109-177.969-244.965-234.074l74.082-102.982c133.815 70.493 219.601 162.637 246.745 263.902 45.159-121.129 108.458-202.428 206.915-267.452l75.034 103.825c-115.652 75.97-172.647 140.065-212.43 236.789zM2430.671 267.341h-65.968v150.067h65.968v-150.067zM2430.671 522.176h-65.968v131.982h65.968v-131.982zM2735.246 437.234h-55.161v172.601h55.161v-172.601zM2837.276 609.834h59.717v-172.601h-59.717v172.601zM3144.527 778.768v-104.815h355.102v-56.94h-163.542v-432.797h430.144v432.797h-165.352v56.94h359.659v104.815h-816.010zM3499.622 271.874h-70.477v87.666h70.477v-87.666zM3499.622 444.42h-70.477v79.52h70.477v-79.52zM3668.633 271.874h-67.739v87.666h67.739v-87.666zM3668.633 523.948v-79.52h-67.739v79.52h67.739zM3820.479 132.698h-540.428v468.991h-107.476v-602.69h107.476v34.314h540.428v-34.314h111.993v602.69h-111.993zM1786.72 44.955c0 17.985-10.745 26.958-33.177 26.958h-35.297v-94.303h14.249v40.673h15.378l25.589-40.673h15.378l-27.159 41.609c14.094 1.477 25.040 8.625 25.040 25.736zM1747.278 29.863h-14.79v30.323h18.782c9.778 0 21.149-1.516 21.149-14.496 0.008-15.324-12.47-15.827-25.14-15.827zM1748.956 105.245c-43.875 0-80.65-34.701-80.65-80.742 0-45.917 36.774-80.572 80.65-80.572 43.829 0 80.704 34.655 80.704 80.572 0 46.034-36.875 80.742-80.704 80.742zM1748.956-44.335c-37.122 0-66.455 29.82-66.455 68.822 0 39.288 29.333 69.062 66.455 69.062 36.898 0 66.262-29.774 66.262-69.062 0-38.994-29.387-68.822-66.262-68.822zM904.697 312.454c24.552 70.942 398.575 359.744 439.488 370.682 38.105 8.23 151.993 33.765 179.207 36.488l46.737 67.236c-51.178 4.146-230.183 4.146-314.043 4.146-97.126 0-292.546 5.863-329.722 0l13.019-71.39c21.783 0 157.261-19.725 198.298-27.762-8.2-62.804-272.101-244.378-302.122-288.005-54.628 79.172-222.919 283.031-329.227 441.236 40.804 10.946 198.483 13.947 231.297 22.077l7.937 55.409c-30.779 3.744-279.937 7.797-389.192 3.744-165.971-6.088-337.342 5.686-356.371-3.829l1.926-62.75c38.244-8.277 192.171-23.678 216.723-31.793 84.695-65.573 414.070-476.866 427.723-517.794 5.523-38.198 5.523-79.079 5.523-100.955v-46.459c0-98.186 5.028-116.441-10.946-133.297-32.342-34.16-179.354-25.040-214.828-27.801l-12.176-69.719c64.73-1.973 275.335 5.229 340.908 5.229 129.096 0 355.040 0.588 387.050-1.725l3.991 73.316c-32.783 5.415-210.605 0.727-235.35 6.212-5.376 35.498-16.763 101.365-16.763 142.316l2.746 57.443c-0.015 35.436 2.7 73.146 8.169 97.745z" horiz-adv-x="3961" />
<glyph unicode="&#xe636;" d="M2342.616 912.569c-231.211 0-418.64-187.429-418.64-418.628 0-231.217 187.429-418.634 418.64-418.634s418.628 187.418 418.628 418.634c0 231.193-187.418 418.628-418.628 418.628zM2342.616 235.298c-142.834 0-258.625 115.797-258.625 258.637s115.791 258.631 258.625 258.631c142.828 0 258.625-115.797 258.625-258.631 0.006-142.834-115.786-258.637-258.625-258.637zM2885.739 268.085c-53.573 0-97-43.415-97-96.982 0-53.579 43.427-97 97-97 53.561 0 96.994 43.421 96.994 97-0.006 53.573-43.433 96.982-96.994 96.982zM2842.801 303.418h83.522c21.676 0 39.246 17.565 39.246 39.246l11.733 530.478c0 21.676-17.565 39.246-39.246 39.246h-106.983c-21.676 0-39.235-17.571-39.235-39.246l11.733-530.478c-0.012-21.676 17.548-39.246 39.229-39.246zM811.505 489.132c-0.186-249.811-143.008-420.024-385.156-420.024-232.257 0-420.536 188.284-420.536 420.53s188.278 420.524 420.53 420.524c142.479 0 268.411-70.864 344.467-179.266l-0.041-0.035c5.204-6.657 8.326-15.012 8.326-24.106 0-11.274-4.779-21.414-12.402-28.577l0.047-0.047-61.306-54.218c-7.111-7.105-16.914-11.501-27.746-11.501-13.821 0-25.943 7.157-32.938 17.949-46.258 71.644-126.792 119.082-218.402 119.082-143.502 0-259.817-116.321-259.817-259.805 0-143.491 116.315-259.811 259.817-259.811 128.077 0 184.993 70.591 212.343 144.345h-172.318c-21.681 0-39.246 17.565-39.246 39.246v75.812c0 21.664 17.565 39.241 39.246 39.241h306.035c21.681 0 39.246-17.577 39.246-39.241l-0.151-0.099zM1047.455-71.853c-5.913-14.175-19.902-24.141-36.217-24.141h-85.371c-21.681 0-39.241 17.565-39.241 39.246 0 7.14 1.936 13.815 5.262 19.588l117.838 232.071-186.185 366.41c-3.343 5.774-5.285 12.46-5.285 19.612 0 21.676 17.565 39.246 39.241 39.246h85.371c16.327 0 30.316-9.966 36.217-24.147l117.1-230.711 117.053 230.711c5.919 14.181 19.908 24.147 36.217 24.147h85.371c21.676 0 39.246-17.571 39.246-39.246 0-7.146-1.942-13.832-5.279-19.606l-321.338-633.181zM1849.111 621.965h-82.493c-14.518 0-26.967-8.768-32.397-21.28-35.985 20.199-77.481 31.758-121.693 31.758-137.595 0-249.154-111.541-249.154-249.13 0-137.595 111.559-249.142 249.154-249.142 44.712 0 86.656 11.838 122.943 32.479 5.925-11.239 17.565-18.984 31.147-18.984h82.493c19.53 0 35.351 15.832 35.351 35.351v403.593c0 19.524-15.815 35.357-35.351 35.357zM1612.522 271.602c-61.69 0-111.698 50.020-111.698 111.704 0 61.69 50.009 111.698 111.698 111.698 61.684 0 111.704-50.009 111.704-111.698s-50.014-111.704-111.704-111.704z" horiz-adv-x="2977" />
<glyph unicode="&#xe637;" d="M1586.77 149.169l-115.289 52.453c33.249 55.949 181.131 522.965 197.201 572.71l27.262 99.481c30.816-18.040 27.065-12.864 162.245-75.724 82.38-38.252 92.091-45.897 119.697-56.694l-76.067-102.788c-63.057-81.538-294.836-462.026-315.048-489.438zM1420.558-67.205l-61.913 27.459 46.758 138.626 77.45-37.908 71.409-28.146-66.727-128.821-66.978 28.791zM1570.128 786.852c-51.147 4.141-230.176 4.141-314.009 4.141-97.14 0-292.545 5.872-329.758 0l13.015-71.385c21.792 0 157.315-19.721 198.283-27.76-8.132-62.806-272.064-244.377-302.056-288.003-54.627 79.169-222.933 283.023-329.268 441.227 40.817 10.944 198.476 13.95 231.339 22.085l7.939 55.416c-30.835 3.747-279.944 7.788-389.191 3.747-166.030-6.111-337.392 5.671-356.421-3.844l1.947-62.759c38.21-8.282 192.141-23.665 216.721-31.797 84.698-65.568 414.042-476.867 427.671-517.793 5.551-38.206 5.551-79.077 5.551-100.961v-46.438c0-98.207 5.030-116.452-10.917-133.306-32.369-34.165-179.354-25.040-214.848-27.802l-12.2-69.709c64.702-1.978 275.359 5.223 340.903 5.223 129.115 0 355.077 0.595 387.047-1.719l4.018 73.313c-32.809 5.42-210.656 0.734-235.353 6.204-5.401 35.494-16.766 101.359-16.766 142.33l2.708 57.432c0 35.451 2.735 73.159 8.209 97.766 24.53 70.937 398.586 359.732 439.504 370.68 38.132 8.232 151.965 33.767 179.227 36.479l46.704 67.233z" horiz-adv-x="1978" />
<glyph unicode="&#xe638;" d="M557.277 484.974c7.154 10.482 10.729 23.591 10.729 39.316 0 17.632-4.707 31.868-14.121 42.708s-22.693 17.696-39.848 20.556c-8.58 1.187-34.316 1.787-77.207 1.787h-82.565v-132.964h78.275c50.752 0 82.442 2.145 95.073 6.435 12.627 4.29 22.514 11.678 29.664 22.161zM2124.564 928h-2070.088c-30.085 0-54.476-24.382-54.476-54.48v-915.052c0-30.081 24.382-54.472 54.476-54.472h2070.088c30.081 0 54.476 24.382 54.476 54.472v915.052c0 30.089-24.391 54.48-54.476 54.48zM593.018 154.007l-76.488 114.012c-27.17 40.746-45.751 66.418-55.761 77.024-10.010 10.597-20.616 17.871-31.813 21.803-11.202 3.932-28.953 5.903-53.259 5.903h-21.433v-218.738h-105.794v523.97h222.671c55.987 0 96.682-4.703 122.056-14.121 25.374-9.41 45.687-26.157 60.941-50.216 15.245-24.063 22.876-51.586 22.876-82.557 0-39.316-11.568-71.785-34.669-97.397-23.114-25.625-57.668-41.764-103.649-48.433 22.876-13.351 41.755-28 56.651-43.96 14.887-15.968 34.967-44.321 60.226-85.068l63.971-102.223h-126.525zM1011.556 152.934h-100.44v378.506c-36.695-34.316-79.944-59.69-129.742-76.134v91.145c26.212 8.58 54.685 24.838 85.425 48.786 30.736 23.948 51.825 51.884 63.26 83.812h81.488l0.009-526.115zM1477.989 222.451c-34.082-46.232-81.378-69.342-141.901-69.342-48.369 0-87.804 12.985-118.302 38.955-30.507 25.974-48.735 60.885-54.68 104.717l100.074 10.367c2.86-22.629 11.312-40.559 25.378-53.791 14.049-13.21 30.255-19.833 48.603-19.833 20.965 0 38.721 8.512 53.259 25.553 14.53 17.041 21.803 42.717 21.803 77.037 0 32.162-7.21 56.285-21.62 72.368-14.423 16.083-33.184 24.127-56.302 24.127-28.834 0-54.68-12.751-77.556-38.244l-81.493 11.793 51.471 272.712h265.562v-94.005h-189.432l-15.726-89c22.395 11.206 45.262 16.807 68.618 16.807 44.555 0 82.327-16.211 113.297-48.611 30.975-32.409 46.466-74.47 46.466-126.172 0-43.117-12.5-81.603-37.52-115.438zM1934.405 368.991h-137.603v-136.173h-91.503v136.173h-137.245v94.005h137.245v136.173h91.503v-136.173h137.603v-94.005z" horiz-adv-x="2179" />
<glyph unicode="&#xe639;" d="M348.032 396.942h-114.522c-0.826 8.65-1.27 17.414-1.27 26.284 0 151.088 122.486 273.576 273.576 273.576 77.63 0 147.706-32.34 197.496-84.276l91.428 90.728c-72.262 70.89-171.262 114.626-280.49 114.626-221.238 0-400.588-179.352-400.588-400.59 0-6.826 0.198-13.606 0.538-20.35h-113.2l173.456-173.576 173.576 173.578zM1025 432.316l-154.524 154.628c-0.134 0.284-0.26 0.574-0.392 0.86l-16.828 16.954-0.292-0.288-1.422 1.422-173.574-173.576h111.222c0.584-7.292 0.886-14.662 0.886-22.104 0-151.090-122.484-273.578-273.574-273.578-77.63 0-147.704 32.344-197.496 84.278l-91.428-90.726c72.264-70.892 171.264-114.63 280.492-114.63 221.238 0 400.586 179.352 400.586 400.59 0 5.42-0.146 10.806-0.36 16.172h116.704z" />
<glyph unicode="&#xe63a;" d="M4487.68 195.209c40.669 66.854 63.46 141.725 63.46 220.791 0 282.768-291.288 512-650.608 512-22.262 0-44.25-0.885-65.935-2.602v2.602h-3183.989c-359.322 0-650.608-229.232-650.608-512 0-282.771 291.286-512 650.608-512 4.441 0 8.865 0.051 13.287 0.122v-0.122l3170.706 2.602c21.685-1.717 43.678-2.602 65.935-2.602 163.602 0 313.098 47.537 427.418 125.997 98.117-27.798 262.602-28.904 410.918 86.497-89.521-37.769-187.208 23.487-251.191 78.715zM3214.175 706.46c20.746-33.919 31.84-56.758 44.298-96.208l-51.211-19.382c-11.089 35.993-25.617 67.146-44.315 97.597l51.228 17.994zM1337.836 89.884c-14.704-25.529-42.174-41.348-71.635-41.348h-653.997c-29.433 0-56.88 15.818-71.609 41.348-14.749 25.515-14.749 57.205 0 82.723l326.987 566.34c14.729 25.509 42.154 41.37 71.632 41.37 29.461 0 56.906-15.852 71.632-41.37l326.993-566.368c14.721-25.495 14.721-57.191-0.003-82.695zM1985.465 230.925c-70.602 45.692-124.608 74.065-211.128 110.748-8.984 4.167-10.364 4.167-17.298 7.621 0.69-8.308 1.386-27.688 1.386-33.914v-152.287c0-30.448 0-41.54 3.468-61.601h-93.458c2.778 18.672 4.161 38.762 4.161 61.601v145.366c0 4.851 0 16.624 0 35.311-6.922-5.55-11.756-8.316-20.763-13.151-51.91-27.696-110.748-51.234-195.196-77.533-13.145 33.223-19.382 44.997-40.841 75.459 68.537 14.528 122.526 32.533 192.436 64.371 80.302 36.683 155.057 87.213 214.57 146.746-5.541 0-5.541 0-14.542 0-4.15-0.685-4.15-0.685-253.344-2.076-40.142 0-47.766-0.687-73.369-3.46v83.742c17.985-4.144 44.301-6.229 74.062-6.229h115.605v56.758c-0.699 25.62-0.699 35.297-3.471 49.842h92.768c-2.786-13.162-3.477-25.62-3.477-48.459v-57.44h116.982c20.78 0 33.919 2.073 47.079 6.22l40.159-47.070c-11.784-8.993-12.472-9.683-30.46-29.761-38.773-44.994-74.772-77.527-141.224-129.437 83.767-26.318 159.215-60.221 241.602-108.68l-45.707-72.687zM2589.778 550.005c-22.155-62.979-60.221-143.968-88.596-190.342-70.597-114.909-168.193-196.58-315.635-264.421-22.14 37.39-31.133 49.155-57.449 71.304 58.846 24.22 93.453 41.537 134.984 69.227 49.138 31.84 78.209 56.756 113.52 96.216-48.459 41.526-89.99 70.602-141.906 98.986l52.609 61.601c58.142-32.536 87.207-51.913 139.137-92.754 32.536 49.839 56.057 98.296 77.524 163.359l-215.269-2.076c-42.94-71.29-92.072-127.364-161.973-186.193-22.85 25.614-33.226 34.604-69.227 55.372 76.144 56.764 131.525 119.746 173.741 197.281 20.064 36.689 33.922 70.602 40.145 96.222l89.988-20.081c-7.604-12.458-7.604-12.458-20.769-38.765-8.299-18.681-13.148-26.997-16.607-33.226 11.072 1.389 11.072 1.389 179.967 2.775 28.383 0.687 42.912 2.073 60.914 8.305l46.38-46.38c-9.012-11.787-10.398-14.548-21.476-46.411zM2814.088 120.163l-83.102-4.812c-0.682 7.604-0.682 11.768-3.457 26.983-13.145 80.998-18.698 148.138-18.698 220.816 0 62.291 4.175 122.515 13.162 182.736 3.46 21.45 3.46 21.45 18.684 99.67 4.86 23.532 7.629 44.304 7.629 51.22 0 0 0 1.38 0 2.071l93.433-8.998c-28.366-60.917-54.671-227.73-55.372-348.177-0.679-24.915-0.679-24.915-0.679-35.993 0-4.84 0-4.84 0-11.077 0-5.539 0-6.919-0.696-13.849h0.696c3.465 6.928 3.465 6.928 8.305 20.073 1.392 4.848 4.854 12.452 8.314 22.845 6.237 14.531 6.237 14.531 13.165 31.15 1.386 2.772 2.076 4.831 8.311 21.45l57.454-24.91c-40.85-80.308-68.526-166.821-68.526-212.514 0.003-4.837 0.003-4.837 1.378-18.684zM3257.797 161.001c-11.762 14.548-32.542 31.857-51.902 44.309-23.552 15.929-39.469 25.608-43.63 28.378 0-4.153 0-5.536 0-9.691 0-14.557-2.076-28.378-5.536-38.762-15.923-40.162-64.382-64.373-131.519-64.373-90.686 0-146.044 42.912-146.044 113.52 0 66.447 58.835 113.52 142.579 113.52 25.617 0 42.912-2.766 61.618-8.998-2.088 16.607-2.783 50.532-5.55 147.436-27.69-1.372-44.321-1.372-62.3-1.372-25.611 0-53.299 0.687-85.824 2.764-9.688 0.696-17.286 0.696-20.766 1.386-6.243 0-10.393 0-11.779 0-3.457 0.69-5.536 0.69-6.919 0.69-0.696 0-2.085 0-4.158-0.69l1.386 79.603c32.525-7.609 68.529-10.379 125.282-10.379 24.222 0 39.461 0 63.694 0.693 0 40.833-0.69 75.448-0.69 104.519 0 15.233-0.696 24.915-2.082 33.226l86.514 1.38c-3.465-19.377-4.846-52.606-4.846-101.056 0-8.308 0-17.988 0-32.533 35.987 4.837 66.453 10.379 93.441 17.298 4.161 1.383 4.161 1.383 15.233 4.851l5.536 2.071 2.783-78.206c-6.936-0.699-7.632-0.699-20.087-4.158-23.532-4.843-59.531-10.379-96.205-14.534 0-6.24 0-6.24 0-15.931 0-38.069 0-40.145 6.908-156.426 49.851-22.839 67.14-33.221 108.7-62.291 8.99-6.232 12.446-9.012 19.36-12.478l-33.198-83.764zM3282.712 618.557c-11.79 33.916-25.637 64.376-43.63 94.137l49.155 17.994c20.075-31.84 33.226-58.142 44.298-92.058l-49.822-20.073zM3957.624 183.17c-30.465-33.914-64.382-49.851-102.448-49.839-22.817 0-44.292 6.905-59.531 17.977-24.901 19.377-35.998 44.997-35.998 87.215 0 40.145 2.783 58.84 28.392 173.752 10.396 44.287 14.557 71.284 14.557 87.21 0 16.613-9.711 25.611-28.392 25.611-22.143 0-51.907-13.159-85.824-37.384-50.524-37.382-99.679-80.987-125.972-112.832-1.397-31.15-1.397-50.53-1.397-69.912 0-5.533 0-5.533 0.707-82.367 0.682-86.528 0.682-88.599 3.465-114.218h-89.294c4.161 28.378 4.161 28.378 4.851 110.072 0 74.056 0 74.056 1.386 92.737l-1.386-0.687c-6.226-9.677-13.844-18.675-49.16-58.119-15.21-17.32-24.896-29.071-31.818-39.475l-40.171 82.367c15.94 11.077 27.012 21.462 45.016 39.452 65.061 64.376 65.061 64.376 78.212 78.916 0.685 33.235 0.685 40.838 2.065 67.836 0 15.923 0.696 17.306 0.696 35.996-73.374-4.848-87.21-6.232-105.905-9.697l-4.15 78.217c12.441-1.386 18.67-1.386 28.369-1.386 13.148 0 51.214 2.085 83.742 4.158 0.702 10.379 0.702 10.379 1.386 26.304 0 19.38 0.69 40.836 0.69 56.756 0 18.011 0 22.848-2.076 38.773l87.911-1.386c-2.079-8.305-2.079-9.688-2.769-25.614 0-3.457-0.69-12.455-2.076-26.293-0.699-13.849-1.389-19.38-2.769-61.607 0.693 0 3.468 1.38 8.311 2.764l25.608-29.071c-6.916-5.53-9.697-8.302-20.073-20.763-3.471-3.454-3.471-3.454-9.697-12.461-2.778-4.158-4.153-5.539-8.314-11.077l-1.397-40.833c0 0-0.682-4.158-1.372-12.469h0.69c20.078 22.152 34.601 34.615 84.449 71.988 60.226 45.692 103.834 65.078 146.050 65.078 58.136 0 96.909-36.689 96.909-92.064 0-22.845-4.86-52.603-17.298-105.91-23.535-104.516-29.082-133.592-29.082-155.73 0-22.143 10.393-34.601 28.386-34.601 15.221 0 33.916 13.844 48.448 35.3 16.63 24.222 31.84 53.995 40.171 78.91 15.227-36.691 23.518-51.22 46.371-83.051-20.78-36.010-30.477-49.166-48.47-68.54zM980.604 187.671c0-22.978-18.63-41.616-41.605-41.616-22.981 0-41.605 18.638-41.605 41.616 0 22.986 18.63 41.611 41.605 41.611 22.983 0 41.605-18.624 41.605-41.611zM3027.974 278.685c20.769 0 33.914-2.778 56.764-10.387 0-0.685 0-11.080 0-18.681 0-19.382-2.781-29.761-9.007-38.089-10.401-13.835-30.463-20.749-56.071-20.749-38.762 0-63.68 16.613-63.68 42.926 0.003 27.673 27.693 44.98 71.994 44.98zM978.203 269.294h-78.412v236.847h78.412v-236.847z" horiz-adv-x="4739" />
<glyph unicode="&#xe63b;" d="M1024 600.694c0 126.646-102.692 229.308-229.352 229.308-126.656 0-229.32-102.662-229.32-229.308 0-84.48 45.79-158.084 113.77-197.896h-227.57c67.98 39.812 113.8 113.416 113.8 197.896 0 126.646-102.692 229.308-229.352 229.308-126.656 0-229.32-102.662-229.32-229.308 0-101.664 66.188-187.73 157.77-217.816-3.050-5.5-4.926-11.71-4.926-18.414v-108.574c-5.062 16.69-17.512 32.928-32 40.002l-193.040 94.154c-18.948 9.236-34.46-0.45-34.46-21.532v-127.766c0-21.084 0-55.586 0-76.656v-127.794c0-21.056 15.512-30.768 34.46-21.534l193.040 94.18c14.488 7.074 26.938 23.298 32 39.976v-108.586c0-21.054 17.238-38.334 38.336-38.334h529.402c21.082 0 38.348 17.28 38.348 38.334v324.13c0 6.060-1.574 11.738-4.102 16.854 94.040 28.622 162.516 115.962 162.516 219.376z" />
<glyph unicode="&#xe63c;" d="M0 727v-530h1024v530h-1024zM755 549h-74v-55h74v-67h-74v-55h74v-67h-74v-30h-590v370h590v-29h74v-67z" />
<glyph unicode="&#xe63d;" d="M1025.118 800.844v-885.132h-1024v885.132h94.286v-51.614h0.11c-0.062-1.442-0.11-2.886-0.11-4.344 0-54.122 43.876-98 98-98s98 43.878 98 98c0 1.458-0.046 2.902-0.11 4.344h0.11v51.614h438.95v-51.614h0.11c-0.062-1.442-0.11-2.886-0.11-4.344 0-54.122 43.876-98 98-98s98 43.878 98 98c0 1.458-0.046 2.902-0.11 4.344h0.11v51.614h98.764zM926.352 551.914h-826.468v-545.23h826.468v545.23zM369.056 458.586h-150.112v-150.11h150.112v150.11zM589.906 458.586h-150.11v-150.11h150.11v150.11zM810.758 458.586h-150.11v-150.11h150.11v150.11zM369.056 244.636h-150.112v-150.11h150.112v150.11zM589.906 244.636h-150.11v-150.11h150.11v150.11zM810.758 244.636h-150.11v-150.11h150.11v150.11zM828.992 914.094c-25.402 0-46-20.598-46-46v-135.402h0.046c0.488-24.984 20.856-45.094 45.954-45.094s45.464 20.11 45.954 45.094h0.046v135.402c0 25.402-20.594 46-46 46zM191.844 914.094c-25.402 0-46-20.598-46-46v-135.402h0.046c0.488-24.984 20.856-45.094 45.954-45.094s45.464 20.11 45.954 45.094h0.046v135.402c0 25.402-20.594 46-46 46z" />
<glyph unicode="&#xe63e;" d="M729.442 587.696h115.7l-55.372-104.502h-115.702l55.374 104.502zM440.572 483.194h115.7l55.372 104.502h-115.7l-55.372-104.502zM207.074 483.194h115.7l55.372 104.502h-115.7l-55.372-104.502zM962.938 587.696l-55.372-104.502h85.55v104.502h-30.178zM60.060 483.194h29.216l55.372 104.502h-84.588v-104.502zM75.82 582.098l46.784 12.538-46.74-12.508c-0.028-0.030-0.028-0.002-0.044-0.030zM171.036 715.816l80.564-86.598 111.764 29.944-80.536 86.6-111.792-29.946zM508.132 806.148l-111.764-29.946 80.564-86.628 111.764 29.946-80.564 86.628zM621.672 836.56h0.016l80.546-86.6 111.766 29.946-80.536 86.6-111.792-29.946zM48.804 683.072c-11.284-3.034-17.99-14.638-14.958-25.922l16.094-60.066c3.034-11.286 14.608-17.962 25.878-14.988l62.238 16.678-80.564 86.628-8.688-2.33zM951.218 838.572l-16.096 60.066c-3.032 11.284-14.636 17.99-25.922 14.958l-62.194-16.65 80.562-86.628 8.692 2.332c11.254 3.032 17.962 14.638 14.958 25.922zM993.118 483.194h-933.058v-567.298h933.058v567.298zM789.128 253.486h-543.36v51.93h543.36v-51.93zM789.128 93.67h-543.36v51.934h543.36v-51.934z" />
<glyph unicode="&#xe63f;" d="M1339.918 176.446c-71.589-30.211-149.727 18.786-200.899 62.959 32.525 53.471 50.753 113.353 50.753 176.595 0 226.165-232.98 409.512-520.373 409.512-287.396 0-520.373-183.344-520.373-409.512s232.977-409.512 520.373-409.512c130.854 0 250.422 38.018 341.858 100.776 78.475-22.234 210.036-23.116 328.662 69.182z" horiz-adv-x="1489" />
<glyph unicode="&#xe640;" d="M745.92 596.424h-162.042v106.276c0 39.91 26.434 49.226 45.066 49.226 18.588 0 114.348 0 114.348 0v175.454l-157.49 0.62c-174.834 0-214.62-130.868-214.62-214.62v-116.958h-101.1v-180.796h101.1c0-232.050 0-511.626 0-511.626h212.694c0 0 0 282.352 0 511.626h143.474l18.57 180.798z" />
<glyph unicode="&#xe641;" d="M914.62 441.838l-45.296-49.778v-290.6c0-7.608-5.204-14.956-11.646-16.472l-513.418-129.004c-6.326-1.628-11.646 3.18-11.646 10.528v512.662c0 7.332 5.32 14.682 11.646 16.346l513.418 129.216c6.446 1.65 11.646-3.294 11.646-10.63v-53.842l45.296 60.404v176.976c-0.010 16.204-1.528 31.904-12.288 46.33-23.922 32.668-77.080 55.198-117.34 60.262-8.612 1.256-18.74 1.764-29.748 1.764-48.742 0-119.116-10.76-193.048-29.866-14.428-3.546-27.84-7.094-40.746-10.128-76.726-19.252-127.598-31.648-167.346-67.844-2.020-1.92-4.186-3.812-6.462-5.842-31.516-27.338-78.6-68.85-73.544-224.046 0.968-28.53 1.654-64.516 2.13-104.236-58.136 17.232-156.924 41.704-156.924 41.704-27.982-1.004-75.574-11.884-88.106-27.57-14.312-30.9 4.68-75.964 4.68-75.964 6.234-8.37 89.162-37.464 167.35-63.472-74.916-24.016-137.874-47.352-169.892-61.576-3.56-0.924-6.682-2.342-9.334-4.306-0.014-0.008-0.028-0.008-0.042-0.018-8.21-3.986-13.84-13.548-17.346-26.52-3.766-11.932-4.996-25.716-4.512-39.686-0.338-36.612 7.172-80.272 18.572-110.738l337.462-170.144c16.474-6.324 30.002-3.418 65.71 5.192 121.638 29.746 389.618 99.116 466.714 118.608l-0.266 41.126c14.692 14.328 23.052 31.926 23.052 54.566l-0.256 13.292 0.384 0.128v8.868c0 20.64 0.884 68.856 1.14 120.248 0.258 58.978 0.002 121.888 0.002 152.916v1.146zM598.906 199.662l-36.448 95.966-127.352-61.776 137.984-167.328 452.91 497.712-107.852 61.136-48.826-65.11z" />
<glyph unicode="&#xe642;" d="M1022 413.998c0-282.77-227.444-511.998-508-511.998-280.56 0-508 229.228-508 511.998s227.44 512 508 512c280.556 0 508-229.23 508-512zM514 811.026c-217.556 0-393.922-177.752-393.922-397.026 0-219.268 176.368-397.022 393.922-397.022 217.556 0 393.922 177.754 393.922 397.022 0 219.274-176.366 397.026-393.922 397.026zM546.79 688h-111.148v-382h111.148v382zM780.922 416h-345.28v-110h345.28v110z" />
<glyph unicode="&#xe643;" d="M449.524 467h-360.5v360.5h360.5v-360.5zM933.524 467h-360.5v360.5h360.5v-360.5zM449.524-3h-360.5v360.5h360.5v-360.5zM933.524-3h-360.5v360.5h360.5v-360.5z" />
<glyph unicode="&#xe644;" d="M729.442 587.696h115.699l-55.371-104.502h-115.702l55.374 104.502zM440.572 483.194h115.699l55.372 104.501h-115.699l-55.372-104.501zM207.074 483.194h115.7l55.372 104.501h-115.7l-55.372-104.501zM962.938 587.696l-55.371-104.501h85.55v104.501h-30.179zM60.060 483.194h29.216l55.372 104.501h-84.588v-104.501zM75.82 582.098l46.784 12.538-46.74-12.508c-0.028-0.030-0.028-0.002-0.044-0.030zM171.036 715.816l80.564-86.598 111.764 29.944-80.536 86.6-111.792-29.946zM508.132 806.148l-111.764-29.946 80.563-86.628 111.765 29.946-80.564 86.628zM621.672 836.56h0.016l80.547-86.6 111.765 29.946-80.536 86.6-111.792-29.946zM48.804 683.072c-11.284-3.034-17.99-14.638-14.958-25.922l16.094-60.066c3.034-11.286 14.608-17.962 25.878-14.988l62.238 16.678-80.564 86.628-8.688-2.33zM951.218 838.572l-16.096 60.066c-3.032 11.284-14.636 17.99-25.922 14.958l-62.194-16.65 80.563-86.628 8.691 2.332c11.254 3.032 17.962 14.638 14.958 25.922zM993.118 483.194h-933.058v-567.299h933.058v567.299z" />
<glyph unicode="&#xe645;" d="M1824.997 650.693h-128.548l-192.886-209.865v209.865h-96.676v-473.202h96.676v143.187l77.386 79.078 130.034-222.265h123.702l-187.973 288.923zM1192.277 275.461c-18.302-16.15-40.161-24.222-65.564-24.222-34.452 0-62.447 12.703-83.976 38.111-21.533 25.403-32.297 68.037-32.297 127.9 0 56.41 10.927 97.218 32.783 122.409 21.851 25.192 50.33 37.79 85.428 37.79 25.403 0 46.995-7.106 64.758-21.317s29.44-33.59 35.042-58.138l94.633 22.609c-10.769 37.894-26.919 66.963-48.447 87.204-36.175 34.236-83.223 51.355-141.144 51.355-66.322 0-119.827-21.8-160.522-65.404s-61.043-104.807-61.043-183.615c0-74.501 20.236-133.229 60.72-176.187 40.479-42.957 92.157-64.434 155.032-64.434 50.816 0 92.745 12.542 125.801 37.627 33.050 25.082 56.683 63.465 70.894 115.143l-92.697 29.392c-7.966-34.671-21.103-60.076-39.4-76.224zM307.836 571.826h139.925v-394.335h94.132v394.335h142.47v78.867h-376.527zM742.877 650.693h94.132v-473.202h-94.132v473.202zM1979.309 386.107h239.145v78.867h-239.145v106.852h256.954v78.867h-351.086v-473.202h358.718v78.867h-264.586zM2292.234 571.826h139.925v-394.335h94.132v394.335h142.47v78.867h-376.527zM0 928v-1025.272h3480.328v1025.272h-3480.328zM2971.508 576.914h-167.911v-94.132h167.911v-129.749h-167.911v-86.499h167.911v-129.749h-167.911v-81.411h-2630.599v714.892h2630.599v-63.602h167.911v-129.749z" horiz-adv-x="3481" />
<glyph unicode="&#xe646;" d="M508.584 927.944c25.506 0.924 179.87-7.262 228.080-149.346 0 0 12.922-54.828 15.752-93.902 2.862-37.782-17.938-191.218-17.938-191.218l-5.694-27.106c0 0-13.23-62.706-28.98-67.72-16.062-5.384-58.304-57.352-58.304-57.352l16.090-81.594c34.032-14.798 166.052-72.458 239.774-105.876 68.674-31.198 79.070-78.12 79.070-78.12l47.566-171.708h-1023.942l47.566 171.712c0 0 10.4 46.922 79.074 78.12 73.41 33.412 205.094 90.764 239.462 105.534l8.522 81.934c0 0-42.242 51.964-57.996 57.354-16.060 5.016-28.030 70.548-28.030 70.548l-11.014 22.398c0 0-16.092 155.316-13.876 193.098 2.524 41.598 15.752 93.902 15.752 93.902 48.216 142.080 203.528 150.266 229.066 149.342zM1024 393.68h-97.738v97.738h-74.942v-97.738h-97.738v-74.942h97.738v-97.738h74.942v97.738h97.738v74.942z" />
<glyph unicode="&#xe647;" d="M196.024 658.5h-127v127h127v-127zM961 785.5h-679.976v-127h679.976v127zM196.024 479.5h-127v-127h127v127zM961 479.5h-679.976v-127h679.976v127zM196.024 168.5h-127v-127h127v127zM961 168.5h-679.976v-127h679.976v127z" />
<glyph unicode="&#xe648;" d="M625.284 852.55c57.41-23.87 183.148-35.074 265.044 46.766 0 0 0-355.654 0-558.416-117.998-74.19-228.094-93.532-438.542 0-210.45 93.533-303.982-54.452-303.982-54.452v557.442c169.592 140.84 312.948 77.078 477.48 8.66v0zM110.854 864.73h-110.854v-960.73h110.854v960.73z" horiz-adv-x="890" />
<glyph unicode="&#xe649;" d="M1023.398 354.848h-450.398v-456.398h-123.202v456.398h-450.4v123.204h450.4v444.398h123.202v-444.398h450.398v-123.204z" />
<glyph unicode="&#xe64a;" d="M729.442 587.696h115.698l-55.37-104.501h-115.702l55.374 104.501zM440.572 483.194h115.699l55.37 104.5h-115.697l-55.372-104.5zM207.074 483.194h115.7l55.372 104.5h-115.7l-55.372-104.5zM962.938 587.696l-55.369-104.5h85.55v104.5h-30.181zM60.060 483.194h29.216l55.372 104.5h-84.588v-104.5zM75.82 582.098l46.784 12.538-46.74-12.508c-0.028-0.030-0.028-0.002-0.044-0.030zM171.036 715.816l80.564-86.598 111.764 29.944-80.536 86.6-111.792-29.946zM508.132 806.148l-111.764-29.946 80.563-86.628 111.767 29.946-80.566 86.628zM621.672 836.56h0.016l80.549-86.6 111.763 29.946-80.536 86.6-111.792-29.946zM48.804 683.072c-11.284-3.034-17.99-14.638-14.958-25.922l16.094-60.066c3.034-11.286 14.608-17.962 25.878-14.988l62.238 16.678-80.564 86.628-8.688-2.33zM951.218 838.572l-16.096 60.066c-3.032 11.284-14.636 17.99-25.922 14.958l-62.194-16.65 80.563-86.628 8.689 2.332c11.256 3.032 17.964 14.638 14.96 25.922zM993.118 483.194h-933.058v-567.299h933.058v567.299zM512.462 428.973c11.388 0.413 80.313-3.243 101.839-66.684 0 0 5.771-24.48 7.033-41.928 1.277-16.869-8.009-85.379-8.009-85.379l-2.542-12.104c0 0-5.906-27.998-12.94-30.237-7.172-2.403-26.032-25.606-26.032-25.606l7.185-36.432c15.195-6.608 74.144-32.354 107.060-47.272 30.662-13.93 35.306-34.881 35.306-34.881l21.238-76.671h-457.198l21.238 76.671c0 0 4.646 20.951 35.309 34.881 32.777 14.918 91.575 40.525 106.921 47.121l3.805 36.583c0 0-18.861 23.202-25.896 25.606-7.171 2.24-12.517 31.5-12.517 31.5l-4.918 10.001c0 0-7.185 69.351-6.194 86.22 1.127 18.572 7.032 41.928 7.032 41.928 21.53 63.44 90.877 67.096 102.28 66.683z" />
</font>
</defs>
</svg>
